<svg width="1565" height="700" viewBox="0 0 1565 700" fill="none" xmlns="http://www.w3.org/2000/svg">
<g filter="url(#filter0_d_9_2)">
<path d="M147.875 236L303.883 189L414.759 202L509.531 236L594.759 319.5L642.759 348.5L687.759 380.5L602.259 438.5L535.06 505.5L428.259 568L318.759 615.5L158.759 568L114.782 482L19.7588 438.5L47.6512 358L91.7588 319.5L147.875 236Z" fill="white"/>
<path d="M309.724 86.0096C321.237 83.955 333.722 82.5626 344.794 85.1073C351.816 86.7212 355.698 90.2808 356.798 94.743C357.905 99.2341 356.244 104.824 351.756 110.589C349.826 112.596 348.578 115.161 348.189 117.919L348.183 117.967L348.186 118.015C348.945 132.845 350.24 147.648 351.239 160.863L351.271 161.286L351.693 161.324C378.437 163.71 403.946 164.99 429.181 168.42C470.401 174.022 504.635 188.405 532.283 210.975C559.5 233.194 580.358 263.367 595.206 300.964L595.909 302.76C596.417 304.067 597.018 305.338 597.64 306.579L597.656 306.613L597.679 306.644C598.007 307.108 598.394 307.527 598.827 307.891L598.967 308.01H599.149C606.017 308.01 613.015 307.545 619.903 307.362C626.813 307.179 633.658 307.275 640.324 308.387C654.654 310.774 667.141 315.831 676.928 323.954C686.709 332.073 693.82 343.276 697.371 358.005C704.467 387.436 693.194 411.872 671.513 431.34C650.233 450.451 624.265 455.726 596.08 452.117L595.864 452.09L595.697 452.228C594.604 453.136 593.656 454.206 592.89 455.402L592.867 455.438L592.851 455.476C561.292 529.726 502.753 573.283 428.43 597.763H428.429C363.888 619.183 294.387 620.641 229.006 601.944L229.001 601.942C156.863 581.999 104.782 540.383 85.335 463.344L85.2207 462.892L84.7627 462.974C76.6373 464.42 69.8741 465.844 63.0303 466.807C48.071 468.911 34.7444 465.298 24.6113 457.458C14.4765 449.617 7.50478 437.522 5.30566 422.612C2.10551 400.943 8.72947 378.208 20.1172 359.238C31.5075 340.264 47.6214 325.128 63.3076 318.617C68.5984 316.422 74.3511 315.298 80.6504 314.397C86.9296 313.499 93.7863 312.818 101.172 311.509L101.436 311.462L101.543 311.216C121.169 266.044 149.624 232.434 185.822 209.345C222.025 186.252 266 173.665 316.687 170.586L317.116 170.56L317.154 170.132C318.647 153.474 320.123 137.03 321.678 119.731L321.711 119.363L321.37 119.224C319.17 118.322 316.678 117.674 314.524 116.928C312.321 116.164 310.397 115.278 309.068 113.879L308.294 113.051C306.476 111.078 304.612 108.83 303.141 106.5C301.559 103.995 300.463 101.441 300.325 99.0604L300.312 98.5868L300.325 98.1854C300.393 97.2252 300.705 96.107 301.213 94.9286C301.791 93.5879 302.609 92.1993 303.558 90.9237C304.507 89.6476 305.577 88.4954 306.656 87.6219C307.742 86.7426 308.801 86.1749 309.724 86.0096ZM450.425 220.861C403.481 205.441 354.454 195.942 304.592 199.141C248.755 202.725 200.021 224.06 163.975 268.27C130.555 309.247 115.823 357.879 114.613 409.947C113.735 447.755 122.51 479.54 140.441 505.017C158.372 530.494 185.43 549.62 221.046 562.159L221.05 562.161C252.936 573.072 286.378 578.757 320.079 578.991L320.116 579.003L320.211 578.995C335.022 577.736 350.001 577.14 364.755 575.162L366.182 574.967C427.23 566.388 481.295 543.063 522.769 495.946C559.191 454.573 572.863 396.251 561.557 343.054C550.247 289.841 513.943 241.744 450.425 220.862V220.861ZM87.7607 340.379C86.6924 340.278 85.6151 340.314 84.5547 340.485L84.5234 340.49L84.4932 340.499C70.6157 344.585 56.9491 358.487 47.6377 374.708C38.327 390.927 33.2677 409.644 36.8057 423.465C37.8814 427.671 39.7628 431.065 42.4697 433.431C45.1818 435.8 48.6854 437.104 52.9404 437.187C62.0032 437.367 71.1269 436.245 77.6973 435.845L78.1172 435.819L78.1641 435.401C81.8309 402.506 85.2489 371.892 88.7002 340.983L88.334 340.942L88.498 340.524L88.4902 340.518L87.7998 340.035L87.7607 340.379ZM629.922 341.896C623.32 337.943 616.164 335.885 607.625 337.622L607.225 337.704V413.297L607.732 413.288C622.971 413.03 637.6 407.249 648.902 397.02L648.903 397.019C656.58 390.054 659.97 383.25 659.696 376.594C659.423 369.95 655.506 363.6 648.906 357.52C642.561 351.677 636.499 345.835 629.922 341.896Z" fill="#90CAF9" stroke="#1776C4"/>
<path d="M341.686 476.18C335.016 474.336 327.473 473.834 321.959 470.236C319.455 468.561 317.318 466.395 315.678 463.868C314.038 461.342 312.928 458.509 312.418 455.54C311.944 447.509 319.177 444.039 326.816 443.712C330.514 443.543 334.211 444.084 337.705 445.306C343.984 447.809 350.797 448.674 357.501 447.819C364.206 446.963 370.584 444.416 376.033 440.417C382.186 436.205 389.224 433.227 394.381 440.717C398.947 447.348 395.975 454.324 390.395 459.407C383.973 465.56 376.292 470.247 367.883 473.143C359.473 476.039 350.535 477.075 341.686 476.18Z" fill="white"/>
<path d="M258.946 304.064C296.794 305.37 320.464 332.381 318.416 371.921C316.782 403.424 291.479 428.82 263.043 427.515C230.91 426.035 205.439 393.911 206.812 356.558C208.211 318.691 223.929 302.853 258.946 304.064Z" fill="#90CAF9"/>
<path d="M383.759 361.079C383.676 322.22 398.585 304.61 432.066 304.017C475.343 303.251 502.524 327.903 501.533 367.026C500.667 400.72 474.176 429.284 443.054 430.042C407.505 430.907 383.849 403.366 383.759 361.079Z" fill="#90CAF9"/>
</g>
<path d="M778.921 527L872.577 170.7H989.647L1083.3 527H1014.08L994.737 448.614H867.487L848.145 527H778.921ZM883.266 386.516H978.958L935.693 212.947H926.531L883.266 386.516ZM1115.77 527V467.956H1162.6V229.744H1115.77V170.7H1299.01C1320.73 170.7 1339.56 174.433 1355.51 181.898C1371.8 189.024 1384.35 199.374 1393.18 212.947C1402.34 226.181 1406.92 242.13 1406.92 260.793V265.883C1406.92 282.171 1403.87 295.575 1397.76 306.094C1391.65 316.274 1384.35 324.248 1375.87 330.017C1367.73 335.446 1359.92 339.349 1352.46 341.724V350.886C1359.92 352.922 1368.07 356.824 1376.89 362.593C1385.71 368.022 1393.18 375.997 1399.28 386.516C1405.73 397.035 1408.96 410.778 1408.96 427.745V432.835C1408.96 452.516 1404.37 469.483 1395.21 483.735C1386.05 497.648 1373.33 508.337 1357.04 515.802C1341.09 523.267 1322.43 527 1301.05 527H1115.77ZM1229.79 465.92H1292.9C1307.49 465.92 1319.2 462.357 1328.02 455.231C1337.19 448.105 1341.77 437.925 1341.77 424.691V419.601C1341.77 406.367 1337.36 396.187 1328.53 389.061C1319.71 381.935 1307.83 378.372 1292.9 378.372H1229.79V465.92ZM1229.79 317.292H1291.89C1305.8 317.292 1317.17 313.729 1325.99 306.603C1335.15 299.477 1339.73 289.636 1339.73 277.081V271.991C1339.73 259.096 1335.32 249.256 1326.5 242.469C1317.67 235.343 1306.14 231.78 1291.89 231.78H1229.79V317.292ZM1463.96 527V170.7H1531.15V527H1463.96Z" fill="#1E293B"/>
<defs>
<filter id="filter0_d_9_2" x="-1.24121" y="0" width="708" height="708" filterUnits="userSpaceOnUse" color-interpolation-filters="sRGB">
<feFlood flood-opacity="0" result="BackgroundImageFix"/>
<feColorMatrix in="SourceAlpha" type="matrix" values="0 0 0 0 0 0 0 0 0 0 0 0 0 0 0 0 0 0 127 0" result="hardAlpha"/>
<feOffset dy="4"/>
<feGaussianBlur stdDeviation="2"/>
<feComposite in2="hardAlpha" operator="out"/>
<feColorMatrix type="matrix" values="0 0 0 0 0 0 0 0 0 0 0 0 0 0 0 0 0 0 0.25 0"/>
<feBlend mode="normal" in2="BackgroundImageFix" result="effect1_dropShadow_9_2"/>
<feBlend mode="normal" in="SourceGraphic" in2="effect1_dropShadow_9_2" result="shape"/>
</filter>
</defs>
</svg>
